<?xml version="1.0" encoding="utf-8"?>
<!-- Generator: Adobe Illustrator 25.4.1, SVG Export Plug-In . SVG Version: 6.00 Build 0)  -->
<svg version="1.0" id="Layer_2_00000138545840781439380290000010186199102675093920_"
	 xmlns="http://www.w3.org/2000/svg" xmlns:xlink="http://www.w3.org/1999/xlink" x="0px" y="0px" viewBox="0 0 274.7 142.3"
	 enable-background="new 0 0 274.7 142.3" xml:space="preserve">
<g>
	<ellipse fill="#FD287E" cx="85.1" cy="44.8" rx="13.2" ry="13.2"/>
	<g>
		<path fill="#231F20" d="M144.3,0v44.4c0,7-5.7,13.5-12.6,13.5c-7.6,0-13.6-6.3-13.6-13.9l0.2-18.7h-7.1v18.8
			c0,11.3,9.2,20.5,20.5,20.5c10.7,0,19.3-8.7,19.3-19.3V0H144.3z"/>
	</g>
	<rect x="159.8" y="24.8" fill="#231F20" width="7" height="39.9"/>
	<path fill="#231F20" d="M204.9,64.6H176V24.9h28.9c11.1,0,20.1,9,20.1,20.1S216,64.6,204.9,64.6z M182.7,57.8h22.2
		c7.4,0,13.4-5.4,13.4-12.8s-6-13.4-13.4-13.4h-22.2V57.8z"/>
	<g>
		<polygon fill="#231F20" points="142.9,119.7 150.8,119.7 130.9,80.2 111.1,119.7 119,119.7 130.9,95.8 		"/>
		<polygon fill="#FD287E" points="130.9,95.8 119,119.7 142.9,119.7 		"/>
	</g>
	<path fill="#231F20" d="M156.7,119.7V80.3h6.6l16.3,31.7l16-31.6h6.8v39.7h-6.5V94.8l-12.2,24.9h-7.9l-12.4-24.5v24.6
		C163.4,119.8,156.8,119.8,156.7,119.7z"/>
	<g>
		<polygon fill="#231F20" points="218.2,86.7 251.2,86.7 251.2,80.3 211.6,80.3 211.6,119.7 251.2,119.7 251.2,113 218.2,113 		"/>
		<rect x="218.2" y="86.7" fill="#FD287E" width="33" height="26.3"/>
	</g>
	<path fill="#231F20" d="M107.6,119.7l-3.5-6.7l-8.5-16.4H72.2v6.6h19.4l4.9,9.7H75c-7,0-13.5-5.7-13.5-12.6
		c0-7.6,6.3-13.6,13.9-13.6l28.3,0.2l0,0l0,0l3.3-7v-0.1l-9.8-19.4c4.8-3.6,7.9-9.4,7.9-15.8c0-11-8.9-19.9-19.9-19.9
		s-19.9,8.9-19.9,19.9s9,19.9,20,19.9c2.2,0,4.3-0.4,6.3-1l8.5,16.4H75.4c-11.3,0-20.5,9.2-20.5,20.5c0,10.7,8.7,19.3,19.3,19.3
		h25.7l11.4,22.6h7.9L107.6,119.7z M85.1,58c-7.3,0-13.2-5.9-13.2-13.2s5.9-13.2,13.2-13.2c7.3,0,13.2,5.9,13.2,13.2
		c0,3.7-1.6,7.1-4.1,9.5l-4.9-9.8h-7.5l6.7,13C87.4,57.8,86.3,58,85.1,58z"/>
	<path fill="#231F20" d="M56.7,44.6c-2.1-1.9-4.9-3.5-8-3.5H32.3h-2.1c-2.9,0-4.9-2-4.9-4.8c0-2.9,2.3-4.8,5.2-4.8h20.8h5.3L56.5,25
		h-26c-6.4,0-11.6,4.8-11.6,11.1c0,2,0.2,4,1.1,5.6l0,0c2,3.6,6.2,6,10.6,6h16.5l2,0.1c2.9,0,4.9,2.4,4.9,5.2s-2.4,4.9-5.3,4.9H0v7
		h48.7c6.5-0.2,11.8-5.4,11.8-11.8C60.5,49.8,59,46.7,56.7,44.6z"/>
	<rect x="232.9" y="96.6" fill="#231F20" width="41.8" height="6.6"/>
</g>
</svg>
